<svg width="20px" height="19px" viewBox="0 0 20 19" version="1.1" xmlns="http://www.w3.org/2000/svg"
     xmlns:xlink="http://www.w3.org/1999/xlink">
    <g id="Page-1" stroke="none" stroke-width="1" fill="none" fill-rule="evenodd">
        <path d="M15.0249171,9.26901885 C14.9898122,9.26901885 14.9561802,9.27310064 14.9213207,9.27382096 L14.9213207,3.04549361 C14.9213207,1.33786584 11.6442862,0 7.46115134,0 C3.27752547,0 0,1.33762574 0,3.04549361 L0,14.9563893 C0,16.663777 3.27727998,18.0014027 7.46115134,18.0014027 C8.88523383,18.0014027 10.2688106,17.8417328 11.4616423,17.5392003 C11.4655701,17.5382399 11.4682705,17.5353586 11.4721984,17.5341581 C12.3758439,18.4374337 13.6337302,19 15.0249171,19 C17.7682583,19 20,16.8172042 20,14.1340292 C19.9997545,11.4515746 17.7682583,9.26901885 15.0249171,9.26901885 Z M7.46115134,0.480450387 C11.6298024,0.480450387 14.4303425,1.80679118 14.4303425,3.04573371 C14.4303425,4.28443613 11.6300479,5.61077693 7.46115134,5.61077693 C3.29176384,5.61077693 0.490978274,4.28467624 0.490978274,3.04573371 C0.491223763,1.80679118 3.29176384,0.480450387 7.46115134,0.480450387 Z M0.491223763,4.15069757 C1.55419173,5.2962392 4.23763348,6.09074711 7.46139683,6.09074711 C10.6844237,6.09074711 13.3678655,5.2962392 14.4305879,4.15069757 L14.4305879,7.01635242 C14.4305879,8.25481474 11.6302934,9.58067533 7.46139683,9.58067533 C3.29200933,9.58067533 0.491223763,8.25481474 0.491223763,7.01635242 L0.491223763,4.15069757 Z M0.491223763,8.12107618 C1.55419173,9.2663777 4.23763348,10.0606455 7.46139683,10.0606455 C10.6844237,10.0606455 13.3678655,9.2663777 14.4305879,8.12107618 L14.4305879,9.30791589 C12.2513809,9.56386797 10.4760034,11.2042663 10.1200442,13.3500859 C9.27580705,13.482624 8.3819811,13.5505737 7.46139683,13.5505737 C3.29200933,13.5505737 0.491223763,12.224473 0.491223763,10.9857706 L0.491223763,8.12107618 Z M7.46115134,17.5211924 C3.29176384,17.5211924 0.490978274,16.1950917 0.490978274,14.9563893 L0.490978274,12.0909746 C1.55394624,13.2365162 4.237388,14.030784 7.46115134,14.030784 C8.35792316,14.030784 9.22965509,13.9659556 10.0591629,13.843502 C10.0532711,13.9405045 10.0498343,14.0377471 10.0498343,14.1345094 C10.0498343,15.2634838 10.4485087,16.3012182 11.1105929,17.1279002 C10.0098196,17.3843325 8.75512459,17.5211924 7.46115134,17.5211924 Z M15.0249171,18.5200298 C12.552596,18.5200298 10.5408126,16.5526083 10.5408126,14.1342693 C10.5408126,13.9525097 10.5523506,13.7693095 10.5754265,13.5892307 C10.8525838,11.399952 12.7654351,9.74898903 15.0249171,9.74898903 C17.4972382,9.74898903 19.5090217,11.7161704 19.5090217,14.1342693 C19.5087762,16.5526083 17.4972382,18.5200298 15.0249171,18.5200298 Z M15.5271879,16.5026664 C14.3485946,16.7422914 13.1690193,16.12258 12.7244384,15.0274604 C12.3220817,14.0355861 12.6331165,12.9250998 13.457469,12.2664914 L13.390696,12.706364 C13.3708113,12.8374615 13.4633607,12.959675 13.5976433,12.9791235 C13.6099178,12.9808042 13.6219467,12.9817646 13.6337302,12.9817646 C13.7532834,12.9817646 13.8581073,12.8962872 13.8762735,12.7767149 L14.0152203,11.8609538 C14.0247944,11.7980463 14.0083466,11.7339382 13.9695593,11.6827958 C13.9307721,11.6316534 13.8725911,11.5977986 13.808273,11.5881944 L12.8714864,11.4522949 C12.7374494,11.4350073 12.6127409,11.523366 12.5926108,11.6547035 C12.5727262,11.7858009 12.6652756,11.9080145 12.7995581,11.927463 L13.0592856,11.9651595 C12.1357555,12.7615882 11.8001718,14.0509528 12.2678286,15.204658 C12.723702,16.3278699 13.8239843,17.0344993 15.0180435,17.0342592 C15.2190991,17.0342592 15.4231005,17.0143305 15.627102,16.9725522 C15.7596661,16.9456604 15.8450964,16.8184047 15.8171106,16.6885078 C15.7898613,16.5586109 15.661225,16.4745741 15.5271879,16.5026664 Z M17.7817602,13.0643608 C17.2488032,11.7514659 15.8360133,11.0078603 14.4227323,11.2969469 C14.2899227,11.3238386 14.2047379,11.4513345 14.2327237,11.5809913 C14.259973,11.710648 14.3900822,11.7939645 14.5231374,11.7668326 C15.7017307,11.5272077 16.880815,12.1461988 17.3253959,13.2415584 C17.7127777,14.1969368 17.4402848,15.2634838 16.6834418,15.9290552 L16.7440776,15.5300005 C16.7639622,15.3989031 16.6714128,15.2766896 16.5371302,15.2572411 C16.4028477,15.2401936 16.2783847,15.3283122 16.2582546,15.4596497 L16.1193077,16.3756508 C16.1097336,16.4385584 16.1261814,16.5026664 16.1649687,16.5538088 C16.203756,16.6049512 16.2619369,16.638806 16.3262551,16.6484103 L17.2630416,16.7843098 C17.2753161,16.7859905 17.287345,16.7869509 17.2991285,16.7869509 C17.4186817,16.7869509 17.5235056,16.7014735 17.5416718,16.5819011 C17.5615564,16.4508037 17.469007,16.3285902 17.3347244,16.3091417 L17.0330183,16.2652024 C17.9238984,15.4663726 18.2420523,14.2000581 17.7817602,13.0643608 Z"
              id="Shape" fill="#BDBDBD" fill-rule="nonzero"></path>
    </g>
</svg>