<svg width="20px" height="20px" viewBox="0 0 20 20" version="1.1"
     xmlns="http://www.w3.org/2000/svg" xmlns:xlink="http://www.w3.org/1999/xlink">
    <g id="Page-1" stroke="none" stroke-width="1" fill="none" fill-rule="evenodd">
        <path d="M14.0541667,5.94583333 C13.850625,5.74229167 13.5210417,5.74229167 13.3177083,5.94583333 L10,9.26354167 L6.68229167,5.94583333 C6.47875,5.74229167 6.14916667,5.74229167 5.94583333,5.94583333 C5.7425,6.149375 5.74229167,6.47895833 5.94583333,6.68229167 L9.26354167,10 L5.94583333,13.3177083 C5.74229167,13.52125 5.74229167,13.8508333 5.94583333,14.0541667 C6.0475,14.1558333 6.18083333,14.2066667 6.31416667,14.2066667 C6.4475,14.2066667 6.580625,14.1558333 6.6825,14.0541667 L10,10.7364583 L13.3177083,14.0541667 C13.419375,14.1558333 13.5527083,14.2066667 13.6860417,14.2066667 C13.819375,14.2066667 13.9525,14.1558333 14.054375,14.0541667 C14.2579167,13.850625 14.2579167,13.5210417 14.054375,13.3177083 L10.7364583,10 L14.0541667,6.68229167 C14.2577083,6.47895833 14.2577083,6.149375 14.0541667,5.94583333 Z M10,0 C4.48583333,0 0,4.48583333 0,10 C0,15.5141667 4.48583333,20 10,20 C15.5141667,20 20,15.5141667 20,10 C20,4.48583333 15.5141667,0 10,0 Z M10,18.9583333 C5.06041667,18.9583333 1.04166667,14.9395833 1.04166667,10 C1.04166667,5.06041667 5.06041667,1.04166667 10,1.04166667 C14.9395833,1.04166667 18.9583333,5.06041667 18.9583333,10 C18.9583333,14.9395833 14.9395833,18.9583333 10,18.9583333 Z"
              id="Shape" fill="#D4D4D5" fill-rule="nonzero"></path>
    </g>
</svg>